<svg width="120" height="111" viewBox="0 0 120 111" fill="none" xmlns="http://www.w3.org/2000/svg">
<path d="M56.6022 1.91991C58.1468 -0.640266 61.8518 -0.639671 63.397 1.91991L77.8201 25.8397L68.9753 39.8552C68.6401 39.3984 68.3206 38.9256 68.0253 38.4362L59.9996 25.1301L51.9738 38.4362C49.2638 42.9288 44.8138 46.0924 39.6879 47.1643L25.1242 50.2065L34.6427 60.4947C38.3449 64.4956 40.1405 69.9084 39.5716 75.3364L38.0644 89.6727L52.6329 83.4765L53.5247 83.1266C58.0041 81.4843 62.9537 81.5996 67.3662 83.4765L81.9299 89.6727L80.4275 75.3364C79.8587 69.9085 81.6542 64.4955 85.3564 60.4947L94.87 50.2065L81.0818 47.3247L89.5874 33.8534L116.839 39.5491C119.862 40.1821 121.037 43.8826 118.938 46.1535L114.46 50.989L96.2707 70.6516C95.4922 71.4935 95.1141 72.6345 95.2335 73.7764L98.6745 106.599C98.9896 109.616 95.9583 111.861 93.1738 110.677L61.5504 97.2199C60.56 96.7991 59.439 96.7987 58.4487 97.2199L26.8254 110.677L26.2971 110.861C23.6718 111.577 21.0293 109.426 21.3246 106.599L22.071 99.4457L24.7656 73.7764C24.8703 72.776 24.5936 71.7752 23.9999 70.9772L23.7285 70.6516L1.06145 46.1535C-1.03654 43.8827 0.137907 40.1824 3.15997 39.5491L9.61065 38.1981L36.6492 32.551C37.593 32.3535 38.4284 31.8178 39.0046 31.0542L39.2372 30.714L56.6022 1.91991Z" fill="url(#paint0_linear_16_120)"/>
<defs>
<linearGradient id="paint0_linear_16_120" x1="60" y1="0" x2="60" y2="111" gradientUnits="userSpaceOnUse">
<stop stop-color="#A17AD7"/>
<stop offset="0.211538" stop-color="#667EEA"/>
<stop offset="0.485577" stop-color="#667EEA"/>
<stop offset="1" stop-color="#9B9EB1"/>
</linearGradient>
</defs>
</svg>
