<svg width="92" height="13" viewBox="0 0 92 13" fill="none" xmlns="http://www.w3.org/2000/svg">
<path d="M-3.04729e-06 4.87199C-3.04729e-06 1.66799 1.92 -1.35899e-05 4.524 -1.35899e-05C7.14 -1.35899e-05 9.06 1.66799 9.06 4.87199C9.06 8.07599 7.14 9.74399 4.524 9.74399C1.92 9.74399 -3.04729e-06 8.08799 -3.04729e-06 4.87199ZM3.132 4.37999L2.916 4.70399C3.828 5.13599 5.052 5.24399 6.192 5.24399V4.88399C5.052 4.88399 3.96 4.73999 3.132 4.37999ZM13.2202 2.23199L13.6402 2.72399C14.4202 2.19599 15.6442 1.95599 16.5562 2.11199V5.17199C15.6922 5.17199 14.5162 5.21999 13.6282 5.62799V9.56399H9.78825V2.23199H13.2202ZM20.7965 9.56399H17.1125V0.179986H21.1925V1.99199C24.0485 1.84799 25.5965 3.17999 25.5965 5.72399C25.5965 8.57999 24.2285 9.56399 20.7965 9.56399ZM23.1245 5.36399L22.9085 5.06399C22.3205 5.42399 20.9285 5.68799 20.0285 5.68799V6.02399C20.9285 6.02399 22.4525 5.79599 23.1245 5.36399ZM30.3097 2.23199V9.56399H26.2297V0.179986H30.3097V1.88399C29.7217 2.24399 28.0897 2.50799 27.1897 2.50799V2.84399C28.0897 2.84399 29.6617 2.63999 30.3097 2.23199ZM36.695 5.55599C36.095 5.55599 35.147 5.44799 34.463 5.29199V5.63999C35.087 5.78399 36.095 5.89199 36.695 5.89199V9.53999C35.915 9.75599 35.195 9.79199 34.631 9.79199C32.723 9.79199 31.367 8.69999 31.367 6.92399V5.24399H30.863V2.23199H31.283V0.179986H35.363V2.23199H36.695V5.55599ZM45.1222 2.23199V9.56399H41.0422V0.179986H45.1222V1.88399C44.5342 2.24399 42.9022 2.50799 42.0022 2.50799V2.84399C42.9022 2.84399 44.4742 2.63999 45.1222 2.23199ZM48.9875 2.23199L49.4075 2.65199C50.2235 2.20799 50.9795 1.99199 51.7955 1.99199C53.0675 1.99199 54.1115 2.92799 54.1115 4.54799V9.56399H50.2715V5.33999L49.8275 5.50799V9.56399H45.9875V2.23199H48.9875ZM58.1946 6.81599C55.1706 6.44399 54.7386 5.44799 54.7386 4.58399C54.7386 2.85599 56.4666 1.99199 58.6266 1.99199C60.3546 1.99199 61.4586 2.42399 62.3946 2.85599V5.18399C61.0986 4.31999 59.8026 4.34399 58.6266 4.34399V4.70399C61.2186 4.70399 62.5146 5.41199 62.5146 6.86399C62.5146 8.83199 60.7866 9.76799 58.6266 9.76799C57.3306 9.76799 55.9626 9.33599 54.7386 8.47199V6.31199C56.0346 6.87599 57.2466 7.17599 58.1946 7.17599V6.81599ZM67.3526 2.23199V9.56399H63.2726V0.179986H67.3526V1.88399C66.7646 2.24399 65.1326 2.50799 64.2326 2.50799V2.84399C65.1326 2.84399 66.7046 2.63999 67.3526 2.23199ZM67.9779 5.62799C67.9779 3.28799 69.3459 1.99199 71.2179 1.99199C72.1899 1.99199 72.6939 2.13599 73.3059 2.51999L73.5819 2.23199H76.2219V8.48399C76.2219 10.824 74.9139 12.072 72.2739 12.072C71.0499 12.072 69.6819 11.904 68.7819 11.58V8.84399C70.0299 9.43199 71.6259 9.56399 72.6219 9.20399V8.83199C70.0539 9.53999 67.9779 8.31599 67.9779 5.62799ZM73.4139 5.35199L73.1979 5.05199C72.6099 5.41199 71.4579 5.67599 70.5579 5.67599V6.01199C71.4579 6.01199 72.7419 5.78399 73.4139 5.35199ZM81.0401 9.56399H76.9601V0.179986H81.0401V2.11199C80.4641 2.32799 79.8761 2.56799 79.3001 2.92799L79.4201 3.31199C80.5241 2.62799 82.3721 1.99199 83.6081 1.99199C85.0001 1.99199 85.5641 2.56799 85.5641 4.18799V9.56399H81.4841V5.69999L81.0401 5.86799V9.56399ZM91.8317 5.55599C91.2317 5.55599 90.2837 5.44799 89.5997 5.29199V5.63999C90.2237 5.78399 91.2317 5.89199 91.8317 5.89199V9.53999C91.0517 9.75599 90.3317 9.79199 89.7677 9.79199C87.8597 9.79199 86.5037 8.69999 86.5037 6.92399V5.24399H85.9997V2.23199H86.4197V0.179986H90.4997V2.23199H91.8317V5.55599Z" fill="url(#paint0_linear_13_14)"/>
<defs>
<linearGradient id="paint0_linear_13_14" x1="-0.300003" y1="5.02399" x2="92.7" y2="5.02399" gradientUnits="userSpaceOnUse">
<stop stop-color="#667EEA"/>
<stop offset="1" stop-color="#666666"/>
</linearGradient>
</defs>
</svg>
